<svg width="29" height="29" viewBox="0 0 29 29" fill="none" xmlns="http://www.w3.org/2000/svg">
<path fill-rule="evenodd" clip-rule="evenodd" d="M18.2512 0.500155C21.9907 1.50213 25.1162 3.90046 27.0518 7.25313C28.9875 10.6059 29.5019 14.5117 28.4999 18.2513C27.4979 21.9909 25.0996 25.1163 21.7469 27.052C19.5137 28.3413 17.035 29 14.5236 29C13.2645 29 11.9974 28.8345 10.7487 28.4999C7.00922 27.4979 3.88368 25.0996 1.94804 21.7469C0.012347 18.3942 -0.501893 14.4883 0.500079 10.7488C1.50205 7.0093 3.90027 3.88387 7.25306 1.94812C10.6059 0.0123093 14.5117 -0.501931 18.2512 0.500155ZM20.992 25.7449C23.9957 24.0108 26.1442 21.2107 27.0418 17.8607C27.9395 14.5106 27.4788 11.0114 25.7446 8.00781C24.0105 5.00416 21.2105 2.85567 17.8604 1.95803C16.7422 1.65834 15.6066 1.51006 14.4789 1.51006C12.2288 1.51006 10.0086 2.10008 8.00774 3.25527C5.00414 4.98949 2.85565 7.78941 1.95795 11.1395C1.06026 14.4896 1.52091 17.9888 3.25502 20.9923C4.98919 23.996 7.78916 26.1445 11.1393 27.0421C14.4894 27.9396 17.9885 27.479 20.992 25.7449Z" fill="white"/>
<path fill-rule="evenodd" clip-rule="evenodd" d="M12.1354 7.75195L21.4542 13.1322C21.9487 13.4177 22.2439 13.9291 22.2439 14.5C22.2439 15.071 21.9488 15.5823 21.4543 15.8679L12.1353 21.2482C11.8881 21.3908 11.6168 21.4623 11.3455 21.4623C11.0743 21.4623 10.8031 21.391 10.5559 21.2482C10.0613 20.9627 9.76611 20.4513 9.76611 19.8804V9.11976C9.76611 8.54877 10.0614 8.03736 10.5559 7.75189C11.0504 7.46654 11.6409 7.46643 12.1354 7.75195ZM11.3805 19.9411L20.6995 14.5608L20.6995 14.5608C20.7108 14.5542 20.7345 14.5405 20.7345 14.5001C20.7345 14.4597 20.7109 14.446 20.6995 14.4395L11.3807 9.05916L11.3806 9.05913C11.3736 9.05511 11.3622 9.04851 11.3464 9.04851C11.3362 9.04851 11.3242 9.05123 11.3105 9.05916C11.2755 9.07938 11.2755 9.10668 11.2755 9.11982V19.8804C11.2755 19.8935 11.2755 19.9208 11.3105 19.9411C11.3454 19.9613 11.3692 19.9477 11.3805 19.9411Z" fill="white"/>
<path d="M23.4097 7.61476C21.6148 5.29601 18.9166 3.73817 16.0069 3.34061C15.5944 3.28413 15.2134 3.57317 15.1569 3.98625C15.1006 4.39922 15.3896 4.77973 15.8026 4.8362C18.3238 5.18063 20.6614 6.53027 22.2161 8.53874C22.3648 8.73087 22.5879 8.83146 22.8134 8.83146C22.9748 8.83146 23.1374 8.77997 23.2748 8.67349C23.6044 8.41838 23.6648 7.94436 23.4097 7.61476Z" fill="white"/>
</svg>
